<?xml version="1.0" standalone="no"?>
<!DOCTYPE svg PUBLIC "-//W3C//DTD SVG 20010904//EN"
 "http://www.w3.org/TR/2001/REC-SVG-20010904/DTD/svg10.dtd">
<svg version="1.0" xmlns="http://www.w3.org/2000/svg"
 width="512.000000pt" height="512.000000pt" viewBox="0 0 512.000000 512.000000"
 preserveAspectRatio="xMidYMid meet">
<metadata>
Created by potrace 1.14, written by Peter Selinger 2001-2017
</metadata>
<g transform="translate(0.000000,512.000000) scale(0.100000,-0.100000)"
fill="#000000" stroke="none">
<path d="M2168 5115 c-2 -2 -62 -6 -135 -10 -72 -3 -140 -7 -150 -9 -10 -2
-56 -7 -103 -11 -47 -4 -92 -9 -100 -10 -8 -1 -40 -6 -70 -10 -45 -6 -215 -36
-280 -50 -104 -23 -262 -69 -292 -85 -10 -6 -22 -10 -28 -10 -24 0 -226 -103
-308 -157 -99 -65 -256 -217 -324 -313 -168 -239 -291 -612 -333 -1010 -1 -14
-5 -52 -9 -85 -25 -226 -31 -390 -31 -795 0 -338 7 -578 19 -675 3 -16 7 -64
10 -106 4 -42 8 -85 10 -96 2 -10 7 -46 11 -78 4 -33 9 -69 11 -80 2 -11 6
-32 9 -47 3 -16 7 -40 10 -55 53 -300 172 -594 319 -788 53 -71 210 -219 286
-269 178 -119 467 -233 683 -270 15 -3 35 -7 45 -10 9 -3 35 -7 57 -11 22 -3
67 -10 100 -15 77 -12 123 -18 210 -26 39 -3 81 -7 94 -10 168 -25 1106 -25
1361 1 19 2 64 6 100 9 810 78 1290 344 1525 849 71 154 135 350 161 494 26
148 33 189 39 233 3 25 8 56 10 70 2 14 7 59 11 100 3 41 8 89 10 105 25 203
25 1219 0 1351 -2 12 -7 54 -11 95 -38 449 -151 827 -326 1094 -69 105 -232
267 -339 337 -163 106 -374 193 -600 247 -84 20 -103 24 -210 42 -76 13 -278
37 -375 44 -44 4 -98 8 -120 11 -45 5 -942 14 -947 9z"/>
</g>
</svg>
